<?xml version="1.0" encoding="utf-8"?>
<!-- Generator: Adobe Illustrator 16.0.0, SVG Export Plug-In . SVG Version: 6.00 Build 0)  -->
<svg version="1.2" baseProfile="tiny" xmlns="http://www.w3.org/2000/svg" xmlns:xlink="http://www.w3.org/1999/xlink" x="0px"
	 y="0px" width="460px" height="460px" viewBox="0 0 460 460" xml:space="preserve">
<g id="Layer_2">
	<rect x="-22" y="-34" fill-rule="evenodd" width="511" height="524"/>
</g>
<g id="Layer_1">
	<path fill-rule="evenodd" fill="#FFFFFF" d="M130.125,369.636c1.35-5.284,2.187-10.765,4.126-15.824
		c34.694-90.529,69.475-181.026,104.406-271.466c2.866-7.419,3.606-14.745,2.714-22.499c-0.883-7.673,1.006-10.365,8.77-10.306
		c7.594,0.059,15.334,0.849,22.734,2.527c16.689,3.785,32.334,10.341,46.542,20.05c1.511,1.032,3.021,2.105,4.356,3.348
		c10.472,9.738,9.185,12.145,1.099,18.947c-5.56,4.678-9.293,10.592-11.944,17.517c-34.603,90.361-69.376,180.658-104.125,270.964
		c-6.806,17.687-23.147,28.416-40.785,26.881c-18.442-1.604-32.85-14.427-36.406-32.492c-0.479-2.438-0.583-4.951-0.861-7.43
		C130.543,369.78,130.334,369.708,130.125,369.636z M273.013,183.517c-0.247-0.204-0.494-0.407-0.741-0.61
		c-0.51,0.396-1.092,0.726-1.518,1.196c-12.276,13.551-27.098,22.343-45.455,24.886c-10.007,1.386-17.88,7.107-24.815,13.973
		c-3.36,3.325-6.877,7.133-8.559,11.414c-16.313,41.535-32.295,83.201-48.277,124.866c-5.652,14.736,2.431,32.52,17.004,37.915
		c14.902,5.518,31.18-2.217,37.009-17.418c19.255-50.214,38.576-100.403,57.865-150.604
		C261.365,213.933,267.184,198.723,273.013,183.517z M306.956,84.659c1.338-0.571,3.783-1.617,6.228-2.662
		c-1.383-2.285-2.745-4.584-4.17-6.842c-0.251-0.396-0.753-0.647-1.164-0.928c-12.571-8.589-26.337-14.191-41.509-15.77
		c-2.749-0.286-5.708,1.446-8.569,2.247c1.591,2.52,2.626,5.805,4.865,7.434C275.396,77.424,289.857,82.525,306.956,84.659z"/>
	<path fill-rule="evenodd" fill="#FFFFFF" d="M203.965,284.802c0.087,4.808-3.721,8.792-8.347,8.733
		c-4.204-0.054-8.25-4.182-8.309-8.479c-0.062-4.501,3.597-8.118,8.296-8.202C200.482,276.767,203.878,279.995,203.965,284.802z"/>
	<path fill-rule="evenodd" fill="#FFFFFF" d="M232.848,258.053c-2.728,2.062-4.428,4.305-5.709,4.086
		c-1.773-0.302-3.232-2.454-4.826-3.814c1.518-1.429,2.864-3.649,4.608-4.023C228.208,254.023,230.014,256.151,232.848,258.053z"/>
	<path fill-rule="evenodd" fill="#FFFFFF" d="M180.913,295.289c2.196,2.708,4.312,4.213,4.471,5.901
		c0.107,1.13-2.782,3.726-3.945,3.517c-1.768-0.316-3.799-2.25-4.521-3.992C176.564,299.863,178.913,297.892,180.913,295.289z"/>
	<path fill-rule="evenodd" fill="#FFFFFF" d="M203.9,335.568c-1.512,1.402-2.466,2.929-3.212,2.833
		c-1.171-0.151-2.202-1.396-3.292-2.178c0.918-0.957,1.694-2.359,2.804-2.714C200.939,333.274,202.155,334.537,203.9,335.568z"/>
	<path fill-rule="evenodd" fill="#FFFFFF" d="M209.844,235.415c-1.625,1.238-2.692,2.531-3.196,2.34
		c-1.178-0.447-2.084-1.607-3.101-2.479c0.818-0.652,1.637-1.826,2.454-1.824C207.016,233.453,208.03,234.426,209.844,235.415z"/>
</g>
</svg>
